<?xml version="1.0" encoding="utf-8"?>
<!-- Generator: Adobe Illustrator 25.0.1, SVG Export Plug-In . SVG Version: 6.00 Build 0)  -->
<svg version="1.1" id="レイヤー_1" xmlns="http://www.w3.org/2000/svg" xmlns:xlink="http://www.w3.org/1999/xlink" x="0px"
	 y="0px" viewBox="0 0 217 98" style="enable-background:new 0 0 217 98;" xml:space="preserve">
<style type="text/css">
	.st0{fill:#E60012;}
	.st1{fill:#FFF100;}
</style>
<path class="st0" d="M31.14,24.12c1.45,1.45,3.92,2.8,5.93,2.8c1.79,0,4.81-0.89,6.94-1.68c0.89-0.22,2.35-0.67,4.14-1.23
	c-2.46,5.03-7.16,12.75-10.85,16.56c-1.23,1.23-2.24,2.91-2.24,4.59c0,1.57,0.78,4.14,2.35,4.14c0.78,0,1.68-0.34,2.68-1.9
	c3.36-4.7,9.4-17.12,12.64-24.61c3.92-1.12,7.94-2.13,9.96-2.68c2.35-0.56,4.03-1.12,4.03-2.35c0-1.68-2.8-2.46-3.69-2.46
	c-0.78,0-1.79,0.34-3.36,1.12c-1.45,0.67-3.13,1.34-5.03,2.01c1.01-2.35,2.24-4.81,3.36-6.94c1.23-2.57,1.9-4.47,1.9-6.15
	c0-1.23-1.79-2.46-3.47-3.24c-1.57-0.78-3.47-1.45-4.25-1.45c-0.56,0-0.89,0.34-1.01,0.67c1.23,0.67,3.69,2.24,3.69,4.7
	c0,1.45-0.45,3.13-1.23,5.15c-1.12,2.68-2.57,6.04-3.58,8.39c-2.8,0.67-5.59,1.23-7.72,1.68c-1.68,0.34-4.7,0.78-6.15,0.78
	c-3.02,0-5.48-1.01-7.72-2.46c-0.22,0.22-0.45,0.34-0.45,0.67C28.01,20.76,29.36,22.44,31.14,24.12z M109.01,43.81
	c0,0.11,0,0.22,0.11,0.34c2.24-1.45,5.37-2.8,8.28-2.8c1.12,0,2.13,0.22,3.02,0.67c-2.01,0.89-4.81,2.46-6.38,4.03l0.45,0.34
	c2.24-1.45,6.04-2.68,9.29-2.8c1.12-0.11,1.9-0.67,1.9-1.68c0-0.56-1.45-2.68-5.93-2.68c-4.25,0-7.94,1.68-10.63,4.25
	C109.01,43.59,109.01,43.7,109.01,43.81z M120.75,58.58c-0.56,0-1.01,0-1.45,0c-2.57,0-4.81-0.67-6.38-2.13
	c-1.57-1.45-1.9-2.8-1.9-4.03c0-1.01,0.22-1.68,0.34-2.01l-0.45-0.22c-0.78,1.12-1.34,2.24-1.34,3.47c0,5.37,5.71,8.17,11.41,8.17
	c3.8,0,5.03-0.34,5.03-1.12c0-0.89-1.9-2.24-3.47-2.24C122.1,58.46,121.42,58.46,120.75,58.58z M163.6,61.48
	c-8.61,0-19.58,6.49-24.61,9.96c-0.34-0.11-0.67-0.78-0.67-2.57c0-2.35,0.34-8.17,0.78-13.09c0.34-2.57,0.45-4.36,0.45-6.04
	c0-1.9,0-4.25,0.22-5.03c0.78-4.25,6.82-6.38,10.96-6.38c1.9,0,3.8,0.45,5.15,0.89c0.67,0.11,1.34,0.34,1.57,0.34
	c2.01,0,3.36-2.46,3.36-4.59c0-1.57-0.45-3.13-2.13-4.7c-2.35-2.13-9.73-5.03-12.42-5.03c-0.45,0-0.89,0.34-1.01,0.67
	c3.92,1.57,6.15,4.03,7.61,5.71c0.89,1.23,1.34,1.9,1.34,2.46c0,0.22-0.11,0.45-0.22,0.67c-0.45,1.01-3.02,1.45-6.6,2.01
	c-3.8,0.78-8.17,3.58-10.18,6.26c-1.34,1.68-1.68,2.8-1.68,3.8c0,0.34,0.11,1.23,0.22,2.01c0,0.89,0.11,1.79,0.11,2.13
	c0,2.13-0.11,5.37-0.34,7.27c-0.67,4.47-1.79,12.19-1.79,14.32c0,3.36,2.68,7.83,5.59,7.83c1.23,0,1.68-0.45,2.35-1.79
	c3.92-7.61,13.09-14.88,20.47-14.88c5.93,0,12.98,3.36,12.98,10.52c0,11.19-11.86,16.78-20.92,19.69c0,0.11-0.11,0.11-0.11,0.11
	c-0.22,0-0.45,0.11-0.67,0.11c-0.34,0.11-0.56,0.11-0.89,0.22c-12.42,1.9-25.28-0.56-37.25-3.69c-2.01-0.56-5.15-1.68-6.94-2.91
	c0.67-0.34,1.12-0.67,1.68-1.12c1.79-1.45,3.47-3.24,4.81-5.03c1.34-1.79,2.57-3.58,3.24-5.03c1.01-1.68,1.34-3.47,1.12-5.03
	c-0.11-1.68-0.78-3.13-1.79-4.25c-1.01-1.01-2.35-1.79-3.8-1.79c-1.57-0.11-3.24,0.45-4.92,1.9c-0.22,0.11-0.34,0.34-0.56,0.45
	v-0.11c-0.11-3.02-1.68-5.48-5.48-6.49c-0.22,0-0.34-0.11-0.56-0.11h-0.56c-0.22,0-0.34,0-0.56,0.11c-0.22,0-0.34,0-0.45,0.11
	c-2.57,0.78-4.25,2.46-5.26,4.47c-1.12,2.13-1.45,4.59-1.34,7.27c0.11,2.57,0.67,5.26,1.57,7.72c0.22,0.56,0.45,1.23,0.78,1.79
	c-1.12,0.11-5.59-0.45-9.29-1.9c-6.15-2.46-12.86-5.03-19.8-7.16c1.68-0.89,3.24-2.13,4.14-3.36c2.13-2.35,3.02-5.26,3.02-8.28
	v-0.56c3.02,1.45,6.6,3.92,9.4,6.26c1.9,1.68,3.02,2.46,3.8,2.46c1.23,0,2.13-1.12,2.13-2.46c0-0.78-0.34-2.13-1.34-3.36
	c-1.9-2.24-9.84-5.82-14.54-7.5c-0.11-0.89-0.34-1.79-0.67-2.8c-0.89-3.24-1.79-6.94-1.79-11.41c0-5.71,3.8-8.61,8.39-8.61
	c4.14,0,7.5,0.78,10.96,2.57c0.45,0.22,0.78,0.45,1.12,0.56c0.89,0.34,1.79,0.56,3.02,0.56c0.67,0,1.23-0.11,2.01-0.22
	c0.78-0.11,1.57-0.22,2.46-0.45c-1.68,5.15-5.82,16-8.84,20.81c-1.23,1.79-1.68,2.68-1.68,3.24c0,1.23,1.34,2.57,2.01,2.57
	c1.01,0,1.79-1.68,2.57-3.69c1.12-2.68,6.38-15.89,8.73-23.49c3.58-0.89,6.26-2.01,7.72-2.8c0.67-0.34,1.01-0.56,1.01-1.23
	c0-0.45-1.12-1.23-2.68-1.23c-0.67,0-1.68,0.34-2.57,0.78c-0.78,0.45-1.57,0.78-2.57,1.12c0.89-2.57,2.24-5.82,2.68-6.26
	c0.34-0.45,0.56-0.89,0.56-1.45c0-0.67-1.01-1.57-2.35-2.57c-1.01-0.67-2.35-1.45-2.68-1.45c-0.34,0-0.56,0.22-0.67,0.45
	c1.01,0.78,1.9,1.57,1.9,3.36c0,1.45-1.23,5.82-2.13,8.84c-1.45,0.34-3.02,0.56-4.47,0.67c0-0.89-0.22-1.45-0.45-2.24
	c-0.56-1.57-5.93-7.61-16.56-7.61c-1.57,0-5.03,0.22-8.17,2.13c-0.22,0.11-0.22,0.45-0.22,0.78c1.23-0.22,2.57-0.34,3.92-0.34
	c4.59,0,9.84,1.12,11.97,4.36c-3.24,0-11.08,0.89-14.65,3.92c-2.91,2.46-3.92,6.15-3.92,10.63c0,3.02,0.34,6.49,0.67,9.17
	c-1.45-0.22-2.8-0.34-4.25-0.34c-2.35,0-4.59,0.22-6.94,0.89c-2.46,0.78-4.36,2.01-4.36,3.92c0,1.45,0.45,3.13,1.01,4.81
	c0.34,0.78,0.67,1.9,1.23,3.36c0.22,0.78,0.78,2.01,1.34,2.91c-7.16-1.23-14.43-1.45-21.26,0.22c3.58-2.01,5.82-5.15,5.82-9.06
	c0-6.82-7.05-11.08-14.65-11.08h-0.45c0-1.12-1.12-1.9-1.57-2.13s-1.12-0.45-1.34-0.45c-0.34,0-0.56,0.11-0.56,0.11
	c0.45,0.78,0.67,1.45,0.78,2.57c-1.68,0.22-3.47,0.67-5.37,1.34c-0.11-1.01-0.11-2.35-0.11-3.58c0-1.57,0-3.24,0.22-4.7
	c2.8-0.45,5.71-1.34,7.72-2.57c0.45-0.34,0.78-0.56,0.78-1.12c0-0.56-0.67-1.12-1.23-1.23c-0.89-0.22-2.13-0.56-2.91-1.57
	c-0.78-1.01-1.12-1.79-1.45-2.35c0.11-0.11,0.22-0.34,0.45-0.56c0.34-0.34,0.34-0.56,0.34-0.89c0-1.57-2.68-3.24-3.8-3.24
	c-0.22,0-0.56,0.11-0.67,0.34c0.34,0.34,0.89,1.12,1.23,1.57c0.11,0.22,0.34,0.78,0.34,1.01c0,0.22-0.11,0.67-0.22,1.01l-0.67,2.35
	c-0.45,1.34-0.89,3.02-1.34,4.81c-0.56,0-1.23,0.11-2.01,0.11c-1.12,0-2.24-0.11-3.13-0.45c-1.12-0.34-2.01-1.12-2.24-1.79
	c-0.45,0.34-0.45,0.56-0.45,0.89c0,1.68,2.68,4.03,5.48,4.03c0.56,0,1.23-0.11,1.9-0.11c-0.34,2.01-0.45,4.03-0.45,6.38
	c0,1.01,0,1.79,0.11,2.57C8.77,56.45,2.28,62.6,2.28,67.19c0,3.13,3.02,3.36,3.92,3.36c4.59,0,8.39-2.01,12.19-5.71
	c0.78,1.57,1.68,2.13,2.13,2.13c0.67,0,1.23-1.12,1.23-2.35c0-0.34-0.34-1.45-1.01-2.57c3.02-3.69,4.7-7.61,5.03-9.73
	c6.26,0,12.08,3.13,12.08,9.73c0,6.38-8.95,11.41-16.11,11.75v0.56c3.36,0,6.6-0.45,9.29-1.23c18.91-3.47,37.48,4.7,55.26,10.85
	c5.48,1.9,10.07,1.12,10.4,0.89c0.67,1.12,1.34,2.01,2.01,2.8c1.68,1.9,3.58,2.46,5.48,2.24c0.56,0,1.23-0.22,1.79-0.45
	c0.34,0.56,5.26,2.91,8.5,4.03c5.37,1.68,14.99,3.24,23.83,3.8c3.36,0.11,6.6,0.22,9.17-0.22c5.93-0.45,33.67-5.26,33.67-21.37
	C181.16,65.74,171.32,61.48,163.6,61.48z M19.96,36.76c0.11-0.11,0.11-0.22,0.22-0.34c0.45,1.12,1.12,2.8,2.13,3.58
	c-0.56,0.45-2.13,1.12-3.92,1.45C19.06,39.11,19.62,37.32,19.96,36.76z M7.54,68.2c-2.01,0-2.01-0.89-2.01-1.45
	c0-3.02,3.47-8.17,10.29-11.63c0.34,2.8,1.01,5.71,1.79,7.94C14.25,66.07,10.67,68.2,7.54,68.2z M19.85,60.7
	c-0.78-1.34-1.45-3.24-1.9-6.6c1.68-0.78,3.36-1.34,5.26-1.68C23.09,55,22.42,57.79,19.85,60.7z M63.36,69.76
	c-3.8,0-7.27-6.26-7.27-8.17c0-2.01,2.68-3.02,5.71-3.02c2.24,0,4.7,0.34,7.27,0.89c0.22,1.12,0.34,2.01,0.34,2.8
	C69.4,65.4,66.38,69.76,63.36,69.76z M101.06,86.99c-1.01-0.67-1.79-1.79-2.35-3.8c1.79-1.23,3.47-2.68,4.92-4.47
	c-0.11,0.89,0,1.79,0,2.57c0.22,2.01,0.78,4.03,1.57,5.82C103.75,87.44,102.18,87.77,101.06,86.99z M184.85,60.25
	c-1.79-2.8-2.24-6.38-2.24-10.63c0-2.57,0.22-5.37,0.45-8.17c0.34-2.91,0.56-5.82,1.12-7.61c0.34-1.12,0.56-2.01,0.56-2.57
	c0-1.9-3.58-5.15-5.59-6.04c-0.11-0.11-0.34-0.11-0.34-0.11c-0.11,0-0.34,0.11-0.56,0.22c0.56,0.89,1.34,2.57,1.79,3.92
	c0.34,1.01,0.56,2.24,0.56,4.25c0,2.91-0.45,8.5-0.67,10.4c-0.11,1.45-0.22,5.48-0.22,7.16c0,4.59,0.78,7.94,3.36,10.74
	c2.46,2.68,5.71,4.59,10.4,6.15l0.22-0.45C190.67,65.62,187.2,63.5,184.85,60.25z M211.14,80.17c-1.34-1.57-4.36-4.25-7.61-7.16
	c-1.57-1.34-4.14-4.03-4.14-5.15c0-0.67,0.56-1.34,1.68-2.35c0.56-0.56,10.96-10.18,11.52-10.74c0.56-0.45,1.79-1.57,1.79-2.91
	c0-0.56-0.45-1.34-1.23-2.01c-1.57-1.45-3.92-2.91-4.47-2.91c-0.22,0-0.45,0.22-0.56,0.45c1.34,1.68,2.13,3.02,2.13,4.25
	c0,1.23-0.78,2.46-1.9,3.92c-1.45,1.57-8.28,8.28-10.4,10.29c-0.67,0.67-1.23,1.57-1.23,2.24c0,0.89,0.45,1.68,1.9,3.13
	c4.14,4.47,8.39,8.95,10.07,11.41c1.23,1.68,2.35,3.47,3.13,5.37c0.34,1.01,1.01,1.45,1.57,1.45c1.23,0,1.9-1.01,1.9-2.46
	C215.28,85.42,212.93,82.29,211.14,80.17z"/>
<path class="st1" d="M97.48,80.61c-0.89-2.46-1.23-5.37-1.23-7.83c0-2.57,0.34-4.92,1.23-6.26c0.34-0.56,0.67-1.12,1.12-1.68
	c0.45-0.45,1.01-1.01,1.68-1.34c0.56-0.34,1.23-0.45,1.9-0.45c0.67,0.11,1.34,0.34,1.9,0.89c1.45,1.45,2.01,3.24,1.79,5.15
	c0,0.89-0.22,1.68-0.56,2.57c-0.22,0.56-0.56,1.23-0.78,1.9v0.11c-0.22,0.45-0.56,1.01-0.89,1.45c-1.23,2.01-2.8,3.92-4.47,5.37
	c-0.45,0.34-0.89,0.67-1.23,1.01C97.71,81.17,97.6,80.95,97.48,80.61z"/>
<path class="st1" d="M116.84,74.57c-0.45,1.45-1.23,3.02-2.35,4.47c-1.01,1.45-2.24,2.8-3.47,4.03c-1.23,1.12-2.57,2.24-3.69,3.02
	c-0.67-1.23-1.01-2.57-1.23-4.03c-0.56-3.36,0.11-7.16,2.35-11.3c0.11-0.34,0.34-0.56,0.56-0.89c0.11-0.22,0.45-0.45,0.67-0.67
	c0.22-0.22,0.56-0.45,0.78-0.56c0.34-0.22,0.56-0.34,0.89-0.45c0.45-0.22,1.01-0.34,1.57-0.34c0.56-0.11,1.23,0,1.79,0.22
	c0.45,0.11,1.01,0.34,1.45,0.78c0.34,0.34,0.67,0.78,0.89,1.34C117.4,71.55,117.28,73.12,116.84,74.57z"/>
</svg>
